<mxfile host="Electron" agent="Mozilla/5.0 (Windows NT 10.0; Win64; x64) AppleWebKit/537.36 (KHTML, like Gecko) draw.io/26.0.15 Chrome/132.0.6834.196 Electron/34.2.0 Safari/537.36" version="26.0.15">
  <diagram name="Page-1" id="sMfelVfia3a1AfxmCvgg">
    <mxGraphModel dx="1985" dy="1398" grid="0" gridSize="10" guides="1" tooltips="1" connect="1" arrows="1" fold="1" page="1" pageScale="1" pageWidth="1700" pageHeight="1100" math="0" shadow="0">
      <root>
        <mxCell id="0" />
        <mxCell id="1" parent="0" />
        <mxCell id="vu18ClXxDmOMRGS1gWiT-2" value="&lt;span style=&quot;color: rgb(38, 127, 153); font-family: Consolas, &amp;quot;Courier New&amp;quot;, monospace; text-align: left; white-space: pre; background-color: rgb(255, 255, 255);&quot;&gt;&lt;font style=&quot;font-size: 23px;&quot;&gt;&lt;b&gt;spi_master&lt;/b&gt;&lt;/font&gt;&lt;/span&gt;" style="rounded=0;whiteSpace=wrap;html=1;" parent="1" vertex="1">
          <mxGeometry x="757" y="328" width="236" height="349" as="geometry" />
        </mxCell>
        <mxCell id="vu18ClXxDmOMRGS1gWiT-3" value="" style="endArrow=classic;html=1;rounded=0;" parent="1" edge="1">
          <mxGeometry width="50" height="50" relative="1" as="geometry">
            <mxPoint x="627" y="345" as="sourcePoint" />
            <mxPoint x="757" y="345" as="targetPoint" />
          </mxGeometry>
        </mxCell>
        <mxCell id="vu18ClXxDmOMRGS1gWiT-20" value="&lt;span style=&quot;color: rgb(0, 16, 128); font-family: Consolas, &amp;quot;Courier New&amp;quot;, monospace; font-size: 14px; text-align: left; white-space-collapse: preserve;&quot;&gt;clk&lt;/span&gt;" style="edgeLabel;html=1;align=center;verticalAlign=middle;resizable=0;points=[];" parent="vu18ClXxDmOMRGS1gWiT-3" vertex="1" connectable="0">
          <mxGeometry x="-0.0769" y="-1" relative="1" as="geometry">
            <mxPoint y="-11" as="offset" />
          </mxGeometry>
        </mxCell>
        <mxCell id="vu18ClXxDmOMRGS1gWiT-4" value="" style="endArrow=classic;html=1;rounded=0;" parent="1" edge="1">
          <mxGeometry width="50" height="50" relative="1" as="geometry">
            <mxPoint x="627" y="385" as="sourcePoint" />
            <mxPoint x="757" y="385" as="targetPoint" />
          </mxGeometry>
        </mxCell>
        <mxCell id="vu18ClXxDmOMRGS1gWiT-21" value="&lt;div style=&quot;text-align: left;&quot;&gt;&lt;span style=&quot;background-color: light-dark(#ffffff, var(--ge-dark-color, #121212)); font-size: 14px; white-space-collapse: preserve;&quot;&gt;&lt;font face=&quot;Consolas, Courier New, monospace&quot; color=&quot;#001080&quot;&gt;rst_n&lt;/font&gt;&lt;/span&gt;&lt;/div&gt;" style="edgeLabel;html=1;align=center;verticalAlign=middle;resizable=0;points=[];" parent="vu18ClXxDmOMRGS1gWiT-4" vertex="1" connectable="0">
          <mxGeometry x="-0.0462" y="1" relative="1" as="geometry">
            <mxPoint y="-9" as="offset" />
          </mxGeometry>
        </mxCell>
        <mxCell id="vu18ClXxDmOMRGS1gWiT-5" value="" style="endArrow=classic;html=1;rounded=0;" parent="1" edge="1">
          <mxGeometry width="50" height="50" relative="1" as="geometry">
            <mxPoint x="627" y="425" as="sourcePoint" />
            <mxPoint x="757" y="425" as="targetPoint" />
          </mxGeometry>
        </mxCell>
        <mxCell id="vu18ClXxDmOMRGS1gWiT-23" value="&lt;div style=&quot;text-align: left;&quot;&gt;&lt;span style=&quot;background-color: light-dark(#ffffff, var(--ge-dark-color, #121212)); font-size: 14px; white-space-collapse: preserve;&quot;&gt;&lt;font face=&quot;Consolas, Courier New, monospace&quot; color=&quot;#001080&quot;&gt;tx_data&lt;/font&gt;&lt;/span&gt;&lt;/div&gt;" style="edgeLabel;html=1;align=center;verticalAlign=middle;resizable=0;points=[];" parent="vu18ClXxDmOMRGS1gWiT-5" vertex="1" connectable="0">
          <mxGeometry x="-0.0615" y="1" relative="1" as="geometry">
            <mxPoint y="-9" as="offset" />
          </mxGeometry>
        </mxCell>
        <mxCell id="vu18ClXxDmOMRGS1gWiT-6" value="" style="endArrow=classic;html=1;rounded=0;" parent="1" edge="1">
          <mxGeometry width="50" height="50" relative="1" as="geometry">
            <mxPoint x="627" y="465" as="sourcePoint" />
            <mxPoint x="757" y="465" as="targetPoint" />
          </mxGeometry>
        </mxCell>
        <mxCell id="vu18ClXxDmOMRGS1gWiT-24" value="&lt;div style=&quot;text-align: left;&quot;&gt;&lt;span style=&quot;background-color: light-dark(#ffffff, var(--ge-dark-color, #121212)); font-size: 14px; white-space-collapse: preserve;&quot;&gt;&lt;font face=&quot;Consolas, Courier New, monospace&quot; color=&quot;#001080&quot;&gt;slave_sel&lt;/font&gt;&lt;/span&gt;&lt;/div&gt;" style="edgeLabel;html=1;align=center;verticalAlign=middle;resizable=0;points=[];" parent="vu18ClXxDmOMRGS1gWiT-6" vertex="1" connectable="0">
          <mxGeometry x="-0.1538" y="1" relative="1" as="geometry">
            <mxPoint x="5" y="-9" as="offset" />
          </mxGeometry>
        </mxCell>
        <mxCell id="vu18ClXxDmOMRGS1gWiT-7" value="" style="endArrow=classic;html=1;rounded=0;" parent="1" edge="1">
          <mxGeometry width="50" height="50" relative="1" as="geometry">
            <mxPoint x="627" y="505" as="sourcePoint" />
            <mxPoint x="757" y="505" as="targetPoint" />
          </mxGeometry>
        </mxCell>
        <mxCell id="vu18ClXxDmOMRGS1gWiT-25" value="&lt;div style=&quot;text-align: left;&quot;&gt;&lt;span style=&quot;background-color: light-dark(#ffffff, var(--ge-dark-color, #121212)); font-size: 14px; white-space-collapse: preserve;&quot;&gt;&lt;font face=&quot;Consolas, Courier New, monospace&quot; color=&quot;#001080&quot;&gt;start_transfer&lt;/font&gt;&lt;/span&gt;&lt;/div&gt;" style="edgeLabel;html=1;align=center;verticalAlign=middle;resizable=0;points=[];" parent="vu18ClXxDmOMRGS1gWiT-7" vertex="1" connectable="0">
          <mxGeometry x="-0.0154" y="1" relative="1" as="geometry">
            <mxPoint x="-4" y="-9" as="offset" />
          </mxGeometry>
        </mxCell>
        <mxCell id="vu18ClXxDmOMRGS1gWiT-8" value="" style="endArrow=classic;html=1;rounded=0;" parent="1" edge="1">
          <mxGeometry width="50" height="50" relative="1" as="geometry">
            <mxPoint x="627" y="545" as="sourcePoint" />
            <mxPoint x="757" y="545" as="targetPoint" />
          </mxGeometry>
        </mxCell>
        <mxCell id="vu18ClXxDmOMRGS1gWiT-26" value="&lt;span style=&quot;color: rgb(0, 16, 128); font-family: Consolas, &amp;quot;Courier New&amp;quot;, monospace; font-size: 14px; text-align: left; white-space-collapse: preserve;&quot;&gt;cpol&lt;/span&gt;" style="edgeLabel;html=1;align=center;verticalAlign=middle;resizable=0;points=[];" parent="vu18ClXxDmOMRGS1gWiT-8" vertex="1" connectable="0">
          <mxGeometry x="-0.0923" relative="1" as="geometry">
            <mxPoint y="-10" as="offset" />
          </mxGeometry>
        </mxCell>
        <mxCell id="vu18ClXxDmOMRGS1gWiT-9" value="" style="endArrow=classic;html=1;rounded=0;" parent="1" edge="1">
          <mxGeometry width="50" height="50" relative="1" as="geometry">
            <mxPoint x="627" y="585" as="sourcePoint" />
            <mxPoint x="757" y="585" as="targetPoint" />
          </mxGeometry>
        </mxCell>
        <mxCell id="vu18ClXxDmOMRGS1gWiT-27" value="&lt;span style=&quot;color: rgb(0, 16, 128); font-family: Consolas, &amp;quot;Courier New&amp;quot;, monospace; font-size: 14px; text-align: left; white-space-collapse: preserve;&quot;&gt;cpha&lt;/span&gt;" style="edgeLabel;html=1;align=center;verticalAlign=middle;resizable=0;points=[];" parent="vu18ClXxDmOMRGS1gWiT-9" vertex="1" connectable="0">
          <mxGeometry x="-0.0615" y="-1" relative="1" as="geometry">
            <mxPoint y="-11" as="offset" />
          </mxGeometry>
        </mxCell>
        <mxCell id="vu18ClXxDmOMRGS1gWiT-10" value="" style="endArrow=classic;html=1;rounded=0;" parent="1" edge="1">
          <mxGeometry width="50" height="50" relative="1" as="geometry">
            <mxPoint x="627" y="625" as="sourcePoint" />
            <mxPoint x="757" y="625" as="targetPoint" />
          </mxGeometry>
        </mxCell>
        <mxCell id="vu18ClXxDmOMRGS1gWiT-28" value="&lt;span style=&quot;color: rgb(0, 16, 128); font-family: Consolas, &amp;quot;Courier New&amp;quot;, monospace; font-size: 14px; text-align: left; white-space-collapse: preserve;&quot;&gt;clk_div&lt;/span&gt;" style="edgeLabel;html=1;align=center;verticalAlign=middle;resizable=0;points=[];" parent="vu18ClXxDmOMRGS1gWiT-10" vertex="1" connectable="0">
          <mxGeometry y="2" relative="1" as="geometry">
            <mxPoint y="-8" as="offset" />
          </mxGeometry>
        </mxCell>
        <mxCell id="vu18ClXxDmOMRGS1gWiT-11" value="" style="endArrow=classic;html=1;rounded=0;" parent="1" edge="1">
          <mxGeometry width="50" height="50" relative="1" as="geometry">
            <mxPoint x="627" y="665" as="sourcePoint" />
            <mxPoint x="757" y="665" as="targetPoint" />
          </mxGeometry>
        </mxCell>
        <mxCell id="vu18ClXxDmOMRGS1gWiT-29" value="&lt;div style=&quot;text-align: left;&quot;&gt;&lt;span style=&quot;background-color: light-dark(#ffffff, var(--ge-dark-color, #121212)); font-size: 14px; white-space-collapse: preserve;&quot;&gt;&lt;font face=&quot;Consolas, Courier New, monospace&quot; color=&quot;#001080&quot;&gt;spi_miso&lt;/font&gt;&lt;/span&gt;&lt;/div&gt;" style="edgeLabel;html=1;align=center;verticalAlign=middle;resizable=0;points=[];" parent="vu18ClXxDmOMRGS1gWiT-11" vertex="1" connectable="0">
          <mxGeometry x="-0.0308" relative="1" as="geometry">
            <mxPoint x="-3" y="-10" as="offset" />
          </mxGeometry>
        </mxCell>
        <mxCell id="vu18ClXxDmOMRGS1gWiT-13" value="" style="endArrow=classic;html=1;rounded=0;" parent="1" edge="1">
          <mxGeometry width="50" height="50" relative="1" as="geometry">
            <mxPoint x="996" y="441" as="sourcePoint" />
            <mxPoint x="1126" y="441" as="targetPoint" />
          </mxGeometry>
        </mxCell>
        <mxCell id="vu18ClXxDmOMRGS1gWiT-31" value="&lt;div style=&quot;text-align: left;&quot;&gt;&lt;span style=&quot;background-color: light-dark(#ffffff, var(--ge-dark-color, #121212)); font-size: 14px; white-space-collapse: preserve;&quot;&gt;&lt;font face=&quot;Consolas, Courier New, monospace&quot; color=&quot;#001080&quot;&gt;transfer_done&lt;/font&gt;&lt;/span&gt;&lt;/div&gt;" style="edgeLabel;html=1;align=center;verticalAlign=middle;resizable=0;points=[];" parent="vu18ClXxDmOMRGS1gWiT-13" vertex="1" connectable="0">
          <mxGeometry x="-0.2154" relative="1" as="geometry">
            <mxPoint x="9" y="-10" as="offset" />
          </mxGeometry>
        </mxCell>
        <mxCell id="vu18ClXxDmOMRGS1gWiT-14" value="" style="endArrow=classic;html=1;rounded=0;" parent="1" edge="1">
          <mxGeometry width="50" height="50" relative="1" as="geometry">
            <mxPoint x="996" y="481" as="sourcePoint" />
            <mxPoint x="1126" y="481" as="targetPoint" />
          </mxGeometry>
        </mxCell>
        <mxCell id="vu18ClXxDmOMRGS1gWiT-32" value="&lt;div style=&quot;text-align: left;&quot;&gt;&lt;span style=&quot;background-color: light-dark(#ffffff, var(--ge-dark-color, #121212)); font-size: 14px; white-space-collapse: preserve;&quot;&gt;&lt;font face=&quot;Consolas, Courier New, monospace&quot; color=&quot;#001080&quot;&gt;busy&lt;/font&gt;&lt;/span&gt;&lt;/div&gt;" style="edgeLabel;html=1;align=center;verticalAlign=middle;resizable=0;points=[];" parent="vu18ClXxDmOMRGS1gWiT-14" vertex="1" connectable="0">
          <mxGeometry x="-0.0923" y="-2" relative="1" as="geometry">
            <mxPoint y="-12" as="offset" />
          </mxGeometry>
        </mxCell>
        <mxCell id="vu18ClXxDmOMRGS1gWiT-15" value="" style="endArrow=classic;html=1;rounded=0;" parent="1" edge="1">
          <mxGeometry width="50" height="50" relative="1" as="geometry">
            <mxPoint x="996" y="521" as="sourcePoint" />
            <mxPoint x="1126" y="521" as="targetPoint" />
          </mxGeometry>
        </mxCell>
        <mxCell id="vu18ClXxDmOMRGS1gWiT-33" value="&lt;div style=&quot;text-align: left;&quot;&gt;&lt;font face=&quot;Consolas, Courier New, monospace&quot; color=&quot;#001080&quot;&gt;&lt;span style=&quot;font-size: 14px; white-space-collapse: preserve;&quot;&gt;spi_clk&lt;/span&gt;&lt;/font&gt;&lt;/div&gt;" style="edgeLabel;html=1;align=center;verticalAlign=middle;resizable=0;points=[];" parent="vu18ClXxDmOMRGS1gWiT-15" vertex="1" connectable="0">
          <mxGeometry x="-0.1846" y="-1" relative="1" as="geometry">
            <mxPoint y="-11" as="offset" />
          </mxGeometry>
        </mxCell>
        <mxCell id="vu18ClXxDmOMRGS1gWiT-16" value="" style="endArrow=classic;html=1;rounded=0;" parent="1" edge="1">
          <mxGeometry width="50" height="50" relative="1" as="geometry">
            <mxPoint x="996" y="561" as="sourcePoint" />
            <mxPoint x="1126" y="561" as="targetPoint" />
          </mxGeometry>
        </mxCell>
        <mxCell id="vu18ClXxDmOMRGS1gWiT-34" value="&lt;div style=&quot;text-align: left;&quot;&gt;&lt;span style=&quot;background-color: light-dark(#ffffff, var(--ge-dark-color, #121212)); font-size: 14px; white-space-collapse: preserve;&quot;&gt;&lt;font face=&quot;Consolas, Courier New, monospace&quot; color=&quot;#001080&quot;&gt;spi_mosi&lt;/font&gt;&lt;/span&gt;&lt;/div&gt;" style="edgeLabel;html=1;align=center;verticalAlign=middle;resizable=0;points=[];" parent="vu18ClXxDmOMRGS1gWiT-16" vertex="1" connectable="0">
          <mxGeometry x="-0.1231" relative="1" as="geometry">
            <mxPoint y="-10" as="offset" />
          </mxGeometry>
        </mxCell>
        <mxCell id="vu18ClXxDmOMRGS1gWiT-17" value="" style="endArrow=classic;html=1;rounded=0;" parent="1" edge="1">
          <mxGeometry width="50" height="50" relative="1" as="geometry">
            <mxPoint x="996" y="601" as="sourcePoint" />
            <mxPoint x="1126" y="601" as="targetPoint" />
          </mxGeometry>
        </mxCell>
        <mxCell id="vu18ClXxDmOMRGS1gWiT-35" value="&lt;div style=&quot;text-align: left;&quot;&gt;&lt;span style=&quot;background-color: light-dark(#ffffff, var(--ge-dark-color, #121212)); font-size: 14px; white-space-collapse: preserve;&quot;&gt;&lt;font face=&quot;Consolas, Courier New, monospace&quot; color=&quot;#001080&quot;&gt;spi_cs_n&lt;/font&gt;&lt;/span&gt;&lt;/div&gt;" style="edgeLabel;html=1;align=center;verticalAlign=middle;resizable=0;points=[];" parent="vu18ClXxDmOMRGS1gWiT-17" vertex="1" connectable="0">
          <mxGeometry x="-0.1538" y="4" relative="1" as="geometry">
            <mxPoint x="5" y="-6" as="offset" />
          </mxGeometry>
        </mxCell>
        <mxCell id="vu18ClXxDmOMRGS1gWiT-19" value="" style="endArrow=classic;html=1;rounded=0;" parent="1" edge="1">
          <mxGeometry width="50" height="50" relative="1" as="geometry">
            <mxPoint x="996" y="401" as="sourcePoint" />
            <mxPoint x="1126" y="401" as="targetPoint" />
          </mxGeometry>
        </mxCell>
        <mxCell id="vu18ClXxDmOMRGS1gWiT-30" value="&lt;span style=&quot;color: rgb(0, 16, 128); font-family: Consolas, &amp;quot;Courier New&amp;quot;, monospace; font-size: 14px; text-align: left; white-space-collapse: preserve;&quot;&gt;rx_data&lt;/span&gt;" style="edgeLabel;html=1;align=center;verticalAlign=middle;resizable=0;points=[];" parent="vu18ClXxDmOMRGS1gWiT-19" vertex="1" connectable="0">
          <mxGeometry x="-0.0769" y="-1" relative="1" as="geometry">
            <mxPoint y="-11" as="offset" />
          </mxGeometry>
        </mxCell>
        <mxCell id="vu18ClXxDmOMRGS1gWiT-36" value="" style="endArrow=none;html=1;rounded=0;" parent="1" edge="1">
          <mxGeometry width="50" height="50" relative="1" as="geometry">
            <mxPoint x="1086" y="621" as="sourcePoint" />
            <mxPoint x="1116" y="591" as="targetPoint" />
          </mxGeometry>
        </mxCell>
        <mxCell id="vu18ClXxDmOMRGS1gWiT-37" value="4" style="edgeLabel;html=1;align=center;verticalAlign=middle;resizable=0;points=[];labelBackgroundColor=none;" parent="vu18ClXxDmOMRGS1gWiT-36" vertex="1" connectable="0">
          <mxGeometry x="0.5" y="4" relative="1" as="geometry">
            <mxPoint as="offset" />
          </mxGeometry>
        </mxCell>
        <mxCell id="vu18ClXxDmOMRGS1gWiT-38" value="" style="endArrow=none;html=1;rounded=0;" parent="1" edge="1">
          <mxGeometry width="50" height="50" relative="1" as="geometry">
            <mxPoint x="1086" y="411" as="sourcePoint" />
            <mxPoint x="1116" y="381" as="targetPoint" />
          </mxGeometry>
        </mxCell>
        <mxCell id="vu18ClXxDmOMRGS1gWiT-39" value="8" style="edgeLabel;html=1;align=center;verticalAlign=middle;resizable=0;points=[];labelBackgroundColor=none;" parent="vu18ClXxDmOMRGS1gWiT-38" vertex="1" connectable="0">
          <mxGeometry x="0.5" y="4" relative="1" as="geometry">
            <mxPoint y="-5" as="offset" />
          </mxGeometry>
        </mxCell>
        <mxCell id="vu18ClXxDmOMRGS1gWiT-42" value="" style="endArrow=none;html=1;rounded=0;" parent="1" edge="1">
          <mxGeometry width="50" height="50" relative="1" as="geometry">
            <mxPoint x="627" y="445" as="sourcePoint" />
            <mxPoint x="657" y="415" as="targetPoint" />
          </mxGeometry>
        </mxCell>
        <mxCell id="vu18ClXxDmOMRGS1gWiT-43" value="8" style="edgeLabel;html=1;align=center;verticalAlign=middle;resizable=0;points=[];labelBackgroundColor=none;" parent="vu18ClXxDmOMRGS1gWiT-42" vertex="1" connectable="0">
          <mxGeometry x="0.5" y="4" relative="1" as="geometry">
            <mxPoint y="-5" as="offset" />
          </mxGeometry>
        </mxCell>
        <mxCell id="vu18ClXxDmOMRGS1gWiT-44" value="" style="endArrow=none;html=1;rounded=0;" parent="1" edge="1">
          <mxGeometry width="50" height="50" relative="1" as="geometry">
            <mxPoint x="617" y="645" as="sourcePoint" />
            <mxPoint x="657" y="605" as="targetPoint" />
          </mxGeometry>
        </mxCell>
        <mxCell id="vu18ClXxDmOMRGS1gWiT-45" value="16" style="edgeLabel;html=1;align=center;verticalAlign=middle;resizable=0;points=[];labelBackgroundColor=none;" parent="vu18ClXxDmOMRGS1gWiT-44" vertex="1" connectable="0">
          <mxGeometry x="0.5" y="4" relative="1" as="geometry">
            <mxPoint y="-5" as="offset" />
          </mxGeometry>
        </mxCell>
        <mxCell id="vu18ClXxDmOMRGS1gWiT-46" value="" style="endArrow=none;html=1;rounded=0;" parent="1" edge="1">
          <mxGeometry width="50" height="50" relative="1" as="geometry">
            <mxPoint x="627" y="475" as="sourcePoint" />
            <mxPoint x="657" y="445" as="targetPoint" />
          </mxGeometry>
        </mxCell>
        <mxCell id="vu18ClXxDmOMRGS1gWiT-47" value="2" style="edgeLabel;html=1;align=center;verticalAlign=middle;resizable=0;points=[];labelBackgroundColor=none;" parent="vu18ClXxDmOMRGS1gWiT-46" vertex="1" connectable="0">
          <mxGeometry x="0.5" y="4" relative="1" as="geometry">
            <mxPoint y="-5" as="offset" />
          </mxGeometry>
        </mxCell>
      </root>
    </mxGraphModel>
  </diagram>
</mxfile>
